<?xml version="1.0" standalone="no"?>
<!DOCTYPE svg PUBLIC "-//W3C//DTD SVG 20010904//EN"
 "http://www.w3.org/TR/2001/REC-SVG-20010904/DTD/svg10.dtd">
<svg version="1.0" xmlns="http://www.w3.org/2000/svg"
 width="891.000000pt" height="1280.000000pt" viewBox="0 0 891.000000 1280.000000"
 preserveAspectRatio="xMidYMid meet">
<metadata>
Created by potrace 1.15, written by Peter Selinger 2001-2017
</metadata>
<g transform="translate(0.000000,1280.000000) scale(0.100000,-0.100000)"
fill="#6fb052" stroke="none">
<path d="M4950 12509 c-240 -62 -560 -86 -815 -62 -131 12 -206 8 -270 -17
-47 -18 -221 -59 -320 -75 -112 -18 -279 -26 -550 -29 -227 -1 -253 -7 -275
-55 -16 -35 -23 -211 -11 -291 6 -36 13 -93 16 -128 l6 -63 -123 -58 c-157
-74 -341 -174 -470 -256 -376 -240 -751 -693 -963 -1165 -132 -295 -247 -670
-315 -1030 -80 -426 -121 -603 -141 -616 -4 -2 -11 6 -15 18 -4 13 -27 51 -52
86 -32 46 -52 65 -73 69 -16 3 -29 11 -29 19 0 18 88 294 98 308 10 13 62 159
62 175 0 12 -84 51 -110 51 -9 0 -24 -8 -32 -17 -21 -24 -173 -479 -192 -576
-19 -89 -14 -153 16 -234 22 -59 88 -125 143 -143 21 -7 37 -20 40 -33 36
-120 153 -401 206 -493 37 -64 106 -150 136 -169 66 -43 91 -78 112 -155 36
-137 69 -298 116 -580 23 -138 44 -229 60 -260 8 -16 34 -210 65 -501 28 -261
67 -607 85 -769 19 -162 43 -374 54 -470 12 -96 41 -357 66 -580 24 -223 56
-504 70 -625 14 -121 30 -267 35 -325 5 -58 16 -155 25 -217 8 -61 24 -203 35
-315 11 -112 32 -293 45 -403 13 -110 29 -254 35 -320 11 -118 58 -472 84
-632 12 -78 12 -83 -6 -100 -44 -39 -61 -93 -66 -203 -7 -169 28 -272 133
-389 199 -223 490 -370 1020 -515 414 -114 857 -175 1415 -197 401 -16 882 5
1295 57 220 27 605 91 738 123 377 90 767 273 900 421 95 105 150 265 127 367
-14 63 -38 139 -57 185 -13 32 -14 53 -5 145 7 59 14 140 17 178 7 81 70 682
120 1150 18 176 37 356 40 400 7 99 36 356 75 670 17 132 39 344 50 470 12
127 34 347 50 490 16 143 38 359 50 480 11 121 27 272 35 335 8 63 35 300 60
525 43 392 46 411 69 430 35 29 47 103 52 325 3 107 10 224 16 260 12 71 87
285 120 340 30 51 88 109 128 130 62 32 128 98 155 156 16 34 43 139 72 277
l45 222 49 43 c96 86 125 199 90 362 -28 134 -139 512 -154 527 -10 11 -21 9
-54 -7 -23 -11 -49 -20 -58 -20 -10 0 -15 -9 -15 -28 0 -23 93 -356 115 -414
6 -15 2 -16 -28 -11 -29 4 -38 1 -61 -23 -25 -27 -86 -157 -86 -186 -1 -7 -7
-1 -15 14 -23 42 -53 178 -80 363 -79 536 -161 812 -355 1195 -292 574 -854
1198 -1423 1578 -198 132 -364 211 -582 276 -84 25 -297 71 -376 81 l-46 6
-17 85 c-16 80 -40 167 -72 260 -8 23 -30 59 -48 80 l-33 38 -89 2 c-63 2
-111 -3 -164 -17z m660 -640 c282 -62 474 -146 718 -316 520 -362 1012 -901
1300 -1425 107 -194 225 -491 276 -696 26 -102 85 -421 112 -607 32 -221 81
-362 152 -437 l26 -28 -17 -72 c-9 -40 -22 -103 -28 -140 -10 -52 -15 -65 -25
-57 -7 5 -34 14 -61 18 -26 5 -84 23 -128 40 -293 114 -649 183 -1400 270
-1112 129 -2666 174 -3815 111 -594 -33 -1227 -117 -1475 -196 -118 -38 -263
-99 -296 -125 l-36 -29 -62 154 c-33 85 -61 156 -61 159 0 2 13 21 29 41 40
50 94 219 126 391 110 598 188 887 331 1231 128 308 270 532 518 820 159 186
327 319 591 469 159 91 363 187 370 175 3 -4 12 -43 21 -86 22 -106 47 -162
79 -174 47 -18 130 -11 292 24 166 36 413 66 548 66 44 0 157 -5 250 -11 l170
-12 130 36 c114 32 242 58 395 82 25 4 176 10 335 14 314 7 310 6 383 68 27
23 34 39 42 90 7 39 7 84 1 120 -13 84 -24 83 209 32z m-4892 -3466 c15 -37
25 -83 19 -83 -9 0 -56 98 -50 104 12 12 21 6 31 -21z m7596 -166 c-23 -55
-35 -52 -23 5 12 52 19 62 31 50 7 -7 5 -25 -8 -55z"/>
</g>
</svg>
